<svg width="104" height="51" viewBox="0 0 104 51" fill="none" xmlns="http://www.w3.org/2000/svg">
  <path fill-rule="evenodd" clip-rule="evenodd" d="M49.6736 22.0522H58.1355L67.4011 13.4925H58.9392L49.6736 22.0522Z" fill="#F39200"/>
  <path fill-rule="evenodd" clip-rule="evenodd" d="M69.1425 4.06653L65.481 7.44916L68.3388 12.6262L77.6044 4.06653H69.1425Z" fill="#F39200"/>
  <path fill-rule="evenodd" clip-rule="evenodd" d="M45.4316 4.06653H52.4868L49.4057 22.0522H42.3505L45.4316 4.06653Z" fill="white"/>
  <path fill-rule="evenodd" clip-rule="evenodd" d="M32.8616 15.5551L32.5044 12.255C32.4151 11.4712 32.4597 10.3161 32.482 9.47048H32.1918L29.7582 15.5551H32.7946H32.8616ZM27.012 22.0522H19.5325L29.3786 4.06653H37.193L41.0555 22.0522H33.5761L33.3081 19.804H27.9497L27.012 22.0522Z" fill="white"/>
  <path fill-rule="evenodd" clip-rule="evenodd" d="M55.166 4.06653H63.6055L68.3388 12.6262H59.877L55.166 4.06653Z" fill="white"/>
  <path fill-rule="evenodd" clip-rule="evenodd" d="M85.7089 15.5551L85.3517 12.255C85.2847 11.4712 85.3071 10.3161 85.3294 9.47048H85.0391L82.6055 15.5551H85.642H85.7089ZM79.837 22.0522H72.3799L82.226 4.06653H90.0403L93.9029 22.0522H86.4234L86.1555 19.804H80.7971L79.837 22.0522Z" fill="white"/>
  <path fill-rule="evenodd" clip-rule="evenodd" d="M20.6266 11.3681C19.6665 10.3986 18.3939 9.55299 16.7864 9.55299C14.6653 9.55299 12.6782 11.0999 12.3433 13.0594C12.0084 15.0395 13.5713 16.5658 15.6923 16.5658C17.3222 16.5658 18.7065 15.9264 20.0237 14.8951L18.6618 21.6191C17.4338 22.1141 14.7769 22.3204 13.5043 22.3204C7.96729 22.3204 4.3057 18.3396 5.17645 13.2244C6.06952 7.96481 11.2493 3.77777 16.965 3.77777C18.5725 3.77777 20.18 4.04591 21.5866 4.5203L20.6266 11.3681Z" fill="white"/>
  <path fill-rule="evenodd" clip-rule="evenodd" d="M61.7971 18.6696L67.4011 13.4925L72.112 22.0522H63.6725L61.7971 18.6696Z" fill="white"/>
  <path d="M42.2868 29.4543C42.2186 28.7668 41.926 28.2327 41.4089 27.852C40.8919 27.4713 40.1902 27.281 39.3038 27.281C38.7015 27.281 38.193 27.3662 37.7782 27.5366C37.3635 27.7014 37.0453 27.9315 36.8237 28.227C36.6078 28.5224 36.4998 28.8577 36.4998 29.2327C36.4885 29.5452 36.5538 29.8179 36.6959 30.0508C36.8436 30.2838 37.0453 30.4855 37.301 30.656C37.5566 30.8207 37.8521 30.9656 38.1873 31.0906C38.5226 31.2099 38.8805 31.3122 39.2612 31.3974L40.8294 31.7724C41.5907 31.9429 42.2896 32.1702 42.926 32.4543C43.5623 32.7383 44.1135 33.0878 44.5794 33.5026C45.0453 33.9173 45.4061 34.406 45.6618 34.9685C45.9231 35.531 46.0566 36.1758 46.0623 36.9031C46.0566 37.9713 45.7839 38.8974 45.2441 39.6815C44.7101 40.4599 43.9373 41.0651 42.926 41.4969C41.9203 41.923 40.7072 42.1361 39.2868 42.1361C37.8777 42.1361 36.6504 41.9202 35.6049 41.4883C34.5652 41.0565 33.7527 40.4173 33.1674 39.5707C32.5879 38.7185 32.2839 37.6645 32.2555 36.4088H35.8265C35.8663 36.994 36.0339 37.4827 36.3294 37.8747C36.6305 38.2611 37.0311 38.5537 37.5311 38.7526C38.0368 38.9457 38.6078 39.0423 39.2441 39.0423C39.8691 39.0423 40.4118 38.9514 40.872 38.7696C41.3379 38.5878 41.6987 38.3349 41.9544 38.0111C42.2101 37.6872 42.3379 37.3151 42.3379 36.8946C42.3379 36.5026 42.2214 36.173 41.9885 35.906C41.7612 35.6389 41.426 35.4116 40.9828 35.2241C40.5453 35.0366 40.0084 34.8662 39.372 34.7128L37.4714 34.2355C35.9998 33.8776 34.8379 33.3179 33.9856 32.5565C33.1334 31.7952 32.7101 30.7696 32.7157 29.4798C32.7101 28.423 32.9913 27.4997 33.5595 26.7099C34.1334 25.9202 34.9203 25.3037 35.9203 24.8605C36.9203 24.4173 38.0566 24.1957 39.3294 24.1957C40.6248 24.1957 41.7555 24.4173 42.7214 24.8605C43.693 25.3037 44.4487 25.9202 44.9885 26.7099C45.5282 27.4997 45.8066 28.4145 45.8237 29.4543H42.2868Z" fill="white"/>
  <path d="M52.1296 24.4344V41.8889H48.4393V24.4344H52.1296Z" fill="white"/>
  <path d="M58.8245 24.4344V41.8889H55.1341V24.4344H58.8245Z" fill="#F39200"/>
  <path d="M65.507 41.8889H61.5525L67.578 24.4344H72.3337L78.3508 41.8889H74.3962L70.0241 28.423H69.8877L65.507 41.8889ZM65.2599 35.0281H74.6008V37.9088H65.2599V35.0281Z" fill="#F39200"/>
  <path d="M78.566 41.8889V24.4344H82.2563V31.6361H89.7478V24.4344H93.4296V41.8889H89.7478V34.6787H82.2563V41.8889H78.566Z" fill="white"/>
  </svg>
